HIERARCHY
ROOT hip
{
  OFFSET 0 0 0
  CHANNELS 6 Xposition Yposition Zposition Zrotation Yrotation Xrotation
  JOINT abdomen
  {
    OFFSET 0 20.6881 -0.73152
    CHANNELS 3 Zrotation Xrotation Yrotation
    JOINT chest
    {
      OFFSET 0 11.7043 -0.48768
      CHANNELS 3 Zrotation Xrotation Yrotation
      JOINT neck
      {
        OFFSET 0 22.1894 -2.19456
        CHANNELS 3 Zrotation Xrotation Yrotation
        JOINT head
        {
          OFFSET -0.24384 7.07133 1.2192
          CHANNELS 3 Zrotation Xrotation Yrotation
          JOINT leftEye
          {
            OFFSET 4.14528 8.04674 8.04672
            CHANNELS 3 Zrotation Xrotation Yrotation
            End Site
            {
              OFFSET 1 0 0
            }
          }
          JOINT rightEye
          {
            OFFSET -3.6576 8.04674 8.04672
            CHANNELS 3 Zrotation Xrotation Yrotation
            End Site
            {
              OFFSET 1 0 0
            }
          }
        }
      }
      JOINT rCollar
      {
        OFFSET -2.68224 19.2634 -4.8768
        CHANNELS 3 Zrotation Xrotation Yrotation
        JOINT rShldr
        {
          OFFSET -8.77824 -1.95073 1.46304
          CHANNELS 3 Zrotation Xrotation Yrotation
          JOINT rForeArm
          {
            OFFSET -28.1742 -1.7115 0.48768
            CHANNELS 3 Zrotation Xrotation Yrotation
            JOINT rHand
            {
              OFFSET -22.5879 0.773209 7.07136
              CHANNELS 3 Zrotation Xrotation Yrotation
              JOINT rThumb1
              {
                OFFSET -1.2192 -0.487915 3.41376
                CHANNELS 3 Zrotation Xrotation Yrotation
                JOINT rThumb2
                {
                  OFFSET -3.37035 -0.52449 3.41376
                  CHANNELS 3 Zrotation Xrotation Yrotation
                  End Site
                  {
                    OFFSET -1.78271 -1.18214 1.43049
                  }
                }
              }
              JOINT rIndex1
              {
                OFFSET -7.75947 0.938293 5.60832
                CHANNELS 3 Zrotation Xrotation Yrotation
                JOINT rIndex2
                {
                  OFFSET -2.54057 -0.884171 1.56538
                  CHANNELS 3 Zrotation Xrotation Yrotation
                  End Site
                  {
                    OFFSET -1.62519 -0.234802 1.16502
                  }
                }
              }
              JOINT rMid1
              {
                OFFSET -8.24714 1.18213 3.41376
                CHANNELS 3 Zrotation Xrotation Yrotation
                JOINT rMid2
                {
                  OFFSET -3.10165 -0.590103 1.0647
                  CHANNELS 3 Zrotation Xrotation Yrotation
                  End Site
                  {
                    OFFSET -2.48547 -0.328903 0.83742
                  }
                }
              }
              JOINT rRing1
              {
                OFFSET -8.82822 0.546677 1.51678
                CHANNELS 3 Zrotation Xrotation Yrotation
                JOINT rRing2
                {
                  OFFSET -2.60934 -0.819778 -0.0198488
                  CHANNELS 3 Zrotation Xrotation Yrotation
                  End Site
                  {
                    OFFSET -2.33842 -0.294052 0.168128
                  }
                }
              }
              JOINT rPinky1
              {
                OFFSET -8.27202 -0.0477905 -0.4584
                CHANNELS 3 Zrotation Xrotation Yrotation
                JOINT rPinky2
                {
                  OFFSET -1.82734 -0.647385 -0.700984
                  CHANNELS 3 Zrotation Xrotation Yrotation
                  End Site
                  {
                    OFFSET -1.69225 -0.51767 -0.607171
                  }
                }
              }
            }
          }
        }
      }
      JOINT lCollar
      {
        OFFSET 2.68224 19.2634 -4.8768
        CHANNELS 3 Zrotation Xrotation Yrotation
        JOINT lShldr
        {
          OFFSET 8.77824 -1.95073 1.46304
          CHANNELS 3 Zrotation Xrotation Yrotation
          JOINT lForeArm
          {
            OFFSET 28.1742 -1.7115 0.48768
            CHANNELS 3 Zrotation Xrotation Yrotation
            JOINT lHand
            {
              OFFSET 22.5879 0.773209 7.07136
              CHANNELS 3 Zrotation Xrotation Yrotation
              JOINT lThumb1
              {
                OFFSET 1.2192 -0.487915 3.41376
                CHANNELS 3 Zrotation Xrotation Yrotation
                JOINT lThumb2
                {
                  OFFSET 3.37035 -0.52449 3.41376
                  CHANNELS 3 Zrotation Xrotation Yrotation
                  End Site
                  {
                    OFFSET 1.78271 -1.18214 1.43049
                  }
                }
              }
              JOINT lIndex1
              {
                OFFSET 7.75947 0.938293 5.60832
                CHANNELS 3 Zrotation Xrotation Yrotation
                JOINT lIndex2
                {
                  OFFSET 2.54057 -0.884171 1.56538
                  CHANNELS 3 Zrotation Xrotation Yrotation
                  End Site
                  {
                    OFFSET 1.62519 -0.234802 1.16502
                  }
                }
              }
              JOINT lMid1
              {
                OFFSET 8.24714 1.18213 3.41376
                CHANNELS 3 Zrotation Xrotation Yrotation
                JOINT lMid2
                {
                  OFFSET 3.10165 -0.590103 1.0647
                  CHANNELS 3 Zrotation Xrotation Yrotation
                  End Site
                  {
                    OFFSET 2.48547 -0.328903 0.83742
                  }
                }
              }
              JOINT lRing1
              {
                OFFSET 8.82822 0.546677 1.51678
                CHANNELS 3 Zrotation Xrotation Yrotation
                JOINT lRing2
                {
                  OFFSET 2.60934 -0.819778 -0.0198488
                  CHANNELS 3 Zrotation Xrotation Yrotation
                  End Site
                  {
                    OFFSET 2.33842 -0.294052 0.168128
                  }
                }
              }
              JOINT lPinky1
              {
                OFFSET 8.27202 -0.0477905 -0.4584
                CHANNELS 3 Zrotation Xrotation Yrotation
                JOINT lPinky2
                {
                  OFFSET 1.82734 -0.647385 -0.700984
                  CHANNELS 3 Zrotation Xrotation Yrotation
                  End Site
                  {
                    OFFSET 1.69225 -0.51767 -0.607171
                  }
                }
              }
            }
          }
        }
      }
    }
  }
  JOINT rButtock
  {
    OFFSET -8.77824 4.35084 1.2192
    CHANNELS 3 Zrotation Xrotation Yrotation
    JOINT rThigh
    {
      OFFSET 0 -1.70687 -2.19456
      CHANNELS 3 Zrotation Xrotation Yrotation
      JOINT rShin
      {
        OFFSET 0 -36.8199 0.73152
        CHANNELS 3 Zrotation Xrotation Yrotation
        JOINT rFoot
        {
          OFFSET 0.73152 -45.1104 -5.12064
          CHANNELS 3 Zrotation Xrotation Yrotation
          End Site
          {
            OFFSET -1.1221 -3.69964 12.103
          }
        }
      }
    }
  }
  JOINT lButtock
  {
    OFFSET 8.77824 4.35084 1.2192
    CHANNELS 3 Zrotation Xrotation Yrotation
    JOINT lThigh
    {
      OFFSET 0 -1.70687 -2.19456
      CHANNELS 3 Zrotation Xrotation Yrotation
      JOINT lShin
      {
        OFFSET 0 -36.8199 0.73152
        CHANNELS 3 Zrotation Xrotation Yrotation
        JOINT lFoot
        {
          OFFSET -0.73152 -45.1104 -5.12064
          CHANNELS 3 Zrotation Xrotation Yrotation
          End Site
          {
            OFFSET 1.1221 -3.69964 12.103
          }
        }
      }
    }
  }
}
MOTION
Frames:	9
Frame Time:	0.00833333
8.25901 84.3837 -2.69 -4.3798 4.8397 1.1012 0.948292 8.94718 0.141787 2.57986 -2.37947 0.0104361 3.65595 -5.10609 0.542505 -6.23095 16.6936 0.706047 -0.0 0.0 0.0 -0.0 0.0 0.0 1.09208e-14 -6.8135e-14 3.03412e-13 10.5147 -29.2871 -18.1731 -12.7804 -6.01116 23.131 -0.000608175 -0.698817 -0.0982174 3.39492e-09 -3.0344e-10 1.72619e-09 5.86972e-09 -5.24152e-10 2.98062e-09 3.39493e-09 -3.03441e-10 1.72618e-09 7.73091 5.47488 0.417314 3.39492e-09 -3.03441e-10 1.72618e-09 2.90554 0.965183 0.102902 3.39493e-09 -3.03441e-10 1.72618e-09 10.2786 0.731801 0.0259123 3.39492e-09 -3.03439e-10 1.72619e-09 2.22167 -0.733487 -0.20892 1.0791e-14 -6.81325e-14 3.03176e-13 -15.2413 -25.4945 10.101 15.0142 -7.80255 -27.6177 0.00260031 1.45571 -0.204631 2.19188e-09 -3.07132e-10 1.79023e-09 3.79239e-09 -5.30664e-10 3.09085e-09 2.19188e-09 -3.0713e-10 1.79024e-09 -7.73091 5.47488 -0.417314 2.19189e-09 -3.07129e-10 1.79023e-09 -2.90554 0.965183 -0.102902 2.19188e-09 -3.07128e-10 1.79023e-09 -10.2786 0.731801 -0.0259123 2.19189e-09 -3.07127e-10 1.79022e-09 -2.22167 -0.733487 0.20892 -2.03217e-16 0.0 -3.88251e-19 -3.81132 3.09264 -3.35942 -0.305396 36.7525 0.466771 0.883249 14.1428 -7.42572 2.03217e-16 0.0 3.88251e-19 6.39942 -23.7791 0.918391 0.200677 30.8524 -0.201059 1.04623 0.316443 10.0313
8.423 84.4067 -2.27998 -4.3297 4.6876 1.1354 0.582888 8.94939 0.186171 2.55322 -2.41175 0.0102659 3.68125 -5.11565 0.563545 -6.02185 16.6557 0.704422 -0.0 0.0 0.0 -0.0 0.0 0.0 -1.37408e-14 -9.06478e-14 3.45239e-13 10.4294 -29.1774 -18.0831 -12.8049 -6.02937 23.179 -0.000654368 -0.730421 -0.10266 3.60162e-09 -4.35898e-10 1.9273e-09 6.22718e-09 -7.53518e-10 3.32776e-09 3.60163e-09 -4.359e-10 1.92728e-09 7.73091 5.47488 0.417314 3.60162e-09 -4.35901e-10 1.92729e-09 2.90554 0.965183 0.102902 3.60163e-09 -4.35901e-10 1.92729e-09 10.2786 0.731801 0.0259123 3.60161e-09 -4.35899e-10 1.9273e-09 2.22167 -0.733487 -0.20892 -1.38912e-14 -9.06443e-14 3.44941e-13 -15.4042 -25.5223 10.0525 15.0064 -7.79581 -27.6017 0.00263296 1.465 -0.205938 2.2718e-09 -4.82948e-10 2.10705e-09 3.93117e-09 -8.35564e-10 3.63902e-09 2.2718e-09 -4.82947e-10 2.10706e-09 -7.73091 5.47488 -0.417314 2.2718e-09 -4.82945e-10 2.10705e-09 -2.90554 0.965183 -0.102902 2.27179e-09 -4.82945e-10 2.10705e-09 -10.2786 0.731801 -0.0259123 2.2718e-09 -4.82943e-10 2.10703e-09 -2.22167 -0.733487 0.20892 -2.03217e-16 0.0 -3.88251e-19 -4.17105 2.22598 -3.41836 -0.331085 38.0788 0.488031 0.977988 15.383 -7.10084 2.03217e-16 0.0 3.88251e-19 6.23472 -23.4715 0.896972 0.19919 30.8422 -0.195153 1.0886 0.0993589 10.2717
8.58205 84.4297 -1.87792 -4.268 4.5315 1.1602 0.189654 8.97384 0.226787 2.53689 -2.44451 0.00856713 3.72085 -5.11079 0.589713 -5.83091 16.5855 0.709751 -0.0 0.0 0.0 -0.0 0.0 0.0 -1.62838e-15 -1.1357e-13 2.65374e-13 10.3606 -29.0325 -17.9753 -12.8369 -6.05319 23.2418 -0.000757967 -0.793478 -0.111523 3.06217e-09 -5.40979e-10 1.57317e-09 5.29475e-09 -9.35709e-10 2.71584e-09 3.06218e-09 -5.40981e-10 1.57316e-09 7.73091 5.47488 0.417314 3.06217e-09 -5.40982e-10 1.57316e-09 2.90554 0.965183 0.102902 3.06218e-09 -5.40982e-10 1.57316e-09 10.2786 0.731801 0.0259123 3.06216e-09 -5.4098e-10 1.57317e-09 2.22167 -0.733487 -0.20892 -1.76351e-15 -1.13567e-13 2.65063e-13 -15.5563 -25.5458 10.0135 14.9967 -7.78744 -27.5818 0.00256172 1.44562 -0.203212 1.677e-09 -6.28215e-10 1.65298e-09 2.90206e-09 -1.08715e-09 2.85552e-09 1.67699e-09 -6.28213e-10 1.65299e-09 -7.73091 5.47488 -0.417314 1.677e-09 -6.28212e-10 1.65298e-09 -2.90554 0.965183 -0.102902 1.67699e-09 -6.28212e-10 1.65298e-09 -10.2786 0.731801 -0.0259123 1.677e-09 -6.2821e-10 1.65296e-09 -2.22167 -0.733487 0.20892 -2.03217e-16 0.0 -3.88251e-19 -4.52793 1.3498 -3.45441 -0.358596 39.4051 0.509462 1.08625 16.7047 -6.86081 2.03217e-16 0.0 3.88251e-19 6.04789 -23.1359 0.8631 0.197124 30.7976 -0.188566 1.12969 -0.0998665 10.5297
8.73273 84.4516 -1.48463 -4.2077 4.3814 1.174 -0.228823 9.0172 0.26849 2.52809 -2.47806 0.00673585 3.76471 -5.09543 0.618689 -5.64585 16.4858 0.71905 -0.0 0.0 0.0 -0.0 0.0 0.0 3.2886e-14 -1.37062e-13 1.07431e-13 10.3038 -28.8571 -17.8518 -12.875 -6.08159 23.3166 -0.000920132 -0.876312 -0.123167 2.01349e-09 -6.3063e-10 8.53184e-10 3.48196e-09 -1.09135e-09 1.47194e-09 2.0135e-09 -6.30631e-10 8.53174e-10 7.73091 5.47488 0.417314 2.01349e-09 -6.30631e-10 8.53182e-10 2.90554 0.965183 0.102902 2.0135e-09 -6.30631e-10 8.5318e-10 10.2786 0.731801 0.0259123 2.01348e-09 -6.30629e-10 8.53188e-10 2.22167 -0.733487 -0.20892 3.27897e-14 -1.37062e-13 1.07136e-13 -15.6992 -25.5689 9.9815 14.9847 -7.77704 -27.5572 0.00241701 1.4046 -0.197443 6.32008e-10 -7.58599e-10 7.06159e-10 1.09373e-09 -1.31275e-09 1.22087e-09 6.32005e-10 -7.58597e-10 7.06161e-10 -7.73091 5.47488 -0.417314 6.32009e-10 -7.58596e-10 7.06157e-10 -2.90554 0.965183 -0.102902 6.32004e-10 -7.58595e-10 7.06154e-10 -10.2786 0.731801 -0.0259123 6.32012e-10 -7.58593e-10 7.06142e-10 -2.22167 -0.733487 0.20892 -2.03217e-16 0.0 -3.88251e-19 -4.88701 0.452153 -3.47106 -0.388172 40.7447 0.531768 1.20818 18.0935 -6.69305 2.03217e-16 0.0 3.88251e-19 5.84012 -22.7768 0.816199 0.194538 30.7218 -0.181348 1.17015 -0.283703 10.807
8.87574 84.4733 -1.10119 -4.1518 4.2472 1.1836 -0.652817 9.07198 0.300991 2.52404 -2.50865 0.00212119 3.81215 -5.08146 0.649275 -5.47092 16.3763 0.731178 -0.0 0.0 0.0 -0.0 0.0 0.0 7.08609e-14 -1.50467e-13 -5.70411e-14 10.2464 -28.6858 -17.7191 -12.9131 -6.11006 23.3917 -0.00111138 -0.958045 -0.134657 9.04387e-10 -6.62001e-10 6.19596e-11 1.56462e-09 -1.14614e-09 1.0502e-10 9.04392e-10 -6.62002e-10 6.19517e-11 7.73091 5.47488 0.417314 9.04386e-10 -6.62002e-10 6.19608e-11 2.90554 0.965183 0.102902 9.04395e-10 -6.62001e-10 6.19585e-11 10.2786 0.731801 0.0259123 9.04381e-10 -6.62e-10 6.1967e-11 2.22167 -0.733487 -0.20892 7.08027e-14 -1.50468e-13 -5.73102e-14 -15.8392 -25.5997 9.94304 14.9686 -7.76309 -27.5241 0.00228632 1.36546 -0.191939 -3.8981e-10 -8.09398e-10 -2.99284e-10 -6.74636e-10 -1.40047e-09 -5.15404e-10 -3.89815e-10 -8.09395e-10 -2.99284e-10 -7.73091 5.47488 -0.417314 -3.89809e-10 -8.09395e-10 -2.99287e-10 -2.90554 0.965183 -0.102902 -3.89814e-10 -8.09394e-10 -2.99289e-10 -10.2786 0.731801 -0.0259123 -3.89807e-10 -8.09391e-10 -2.99299e-10 -2.22167 -0.733487 0.20892 -2.03217e-16 0.0 -3.88251e-19 -5.23057 -0.451956 -3.48673 -0.419701 42.0746 0.554575 1.34231 19.534 -6.58254 2.03217e-16 0.0 3.88251e-19 5.62706 -22.4099 0.757974 0.191586 30.6272 -0.173835 1.20983 -0.458904 11.0811
9.00599 84.4943 -0.72817 -4.1167 4.1282 1.1866 -1.06254 9.13069 0.313993 2.52199 -2.53256 -0.00792787 3.86255 -5.08074 0.680273 -5.31038 16.2763 0.744997 -0.0 0.0 0.0 -0.0 0.0 0.0 9.33552e-14 -1.43124e-13 -1.56493e-13 10.1759 -28.5532 -17.5834 -12.9453 -6.13412 23.4551 -0.00127067 -1.0178 -0.143057 1.83669e-10 -5.92245e-10 -5.05886e-10 3.18561e-10 -1.02576e-09 -8.76003e-10 1.83673e-10 -5.92246e-10 -5.05893e-10 7.73091 5.47488 0.417314 1.83669e-10 -5.92245e-10 -5.05883e-10 2.90554 0.965183 0.102902 1.83677e-10 -5.92245e-10 -5.05886e-10 10.2786 0.731801 0.0259123 1.83664e-10 -5.92243e-10 -5.05877e-10 2.22167 -0.733487 -0.20892 9.33098e-14 -1.43126e-13 -1.56742e-13 -15.9827 -25.6469 9.88449 14.9465 -7.74403 -27.4786 0.00224141 1.35171 -0.190007 -9.15102e-10 -7.15911e-10 -9.29215e-10 -1.58386e-09 -1.23843e-09 -1.60379e-09 -9.15109e-10 -7.15909e-10 -9.29215e-10 -7.73091 5.47488 -0.417314 -9.15102e-10 -7.15908e-10 -9.29218e-10 -2.90554 0.965183 -0.102902 -9.15106e-10 -7.15908e-10 -9.2922e-10 -10.2786 0.731801 -0.0259123 -9.15099e-10 -7.15904e-10 -9.29228e-10 -2.22167 -0.733487 0.20892 -2.03217e-16 0.0 -3.88251e-19 -5.54202 -1.34744 -3.51979 -0.45297 43.3718 0.577424 1.48606 21.0106 -6.5139 2.03217e-16 0.0 3.88251e-19 5.42424 -22.0513 0.690078 0.188415 30.5266 -0.166358 1.2484 -0.632254 11.3299
9.13337 84.5156 -0.365139 -4.0742 4.0411 1.192 -1.45789 9.19423 0.30088 2.52212 -2.54883 -0.0254123 3.91878 -5.10166 0.713235 -5.17192 16.1909 0.763325 -0.0 0.0 0.0 -0.0 0.0 0.0 9.10603e-14 -1.001e-13 -1.6025e-13 10.0896 -28.4726 -17.4395 -12.9683 -6.1514 23.5006 -0.00134501 -1.0438 -0.146713 1.67807e-11 -3.3528e-10 -7.74759e-10 2.96871e-11 -5.81184e-10 -1.34053e-09 1.67844e-11 -3.3528e-10 -7.74765e-10 7.73091 5.47488 0.417314 1.67806e-11 -3.3528e-10 -7.74755e-10 2.90554 0.965183 0.102902 1.67885e-11 -3.35279e-10 -7.74757e-10 10.2786 0.731801 0.0259123 1.67752e-11 -3.35277e-10 -7.74749e-10 2.22167 -0.733487 -0.20892 9.0985e-14 -1.00101e-13 -1.60477e-13 -16.1283 -25.7138 9.80488 14.9163 -7.7181 -27.4165 0.00230817 1.37209 -0.192871 -6.75941e-10 -3.58918e-10 -1.00385e-09 -1.17033e-09 -6.20213e-10 -1.73426e-09 -6.75948e-10 -3.58916e-10 -1.00384e-09 -7.73091 5.47488 -0.417314 -6.75941e-10 -3.58915e-10 -1.00385e-09 -2.90554 0.965183 -0.102902 -6.75946e-10 -3.58916e-10 -1.00385e-09 -10.2786 0.731801 -0.0259123 -6.75937e-10 -3.58911e-10 -1.00386e-09 -2.22167 -0.733487 0.20892 -2.03217e-16 0.0 -3.88251e-19 -5.82267 -2.23482 -3.57811 -0.488106 44.6392 0.599985 1.65087 22.5907 -6.48874 2.03217e-16 0.0 3.88251e-19 5.23106 -21.7024 0.611954 0.184977 30.4175 -0.158603 1.28407 -0.800482 11.5461
9.25271 84.5353 -0.010495 -4.0435 3.9802 1.1945 -1.84759 9.26561 0.268417 2.52561 -2.55944 -0.0484869 3.9802 -5.13613 0.748179 -5.05108 16.1098 0.785721 -0.0 0.0 0.0 -0.0 0.0 0.0 7.54976e-14 -3.11108e-14 -1.10335e-13 9.9942 -28.424 -17.2862 -12.9861 -6.16469 23.5355 -0.00135977 -1.04926 -0.147481 1.49103e-10 6.11567e-11 -9.00799e-10 2.57889e-10 1.04888e-10 -1.55828e-09 1.49106e-10 6.11569e-11 -9.00804e-10 7.73091 5.47488 0.417314 1.49103e-10 6.11568e-11 -9.00795e-10 2.90554 0.965183 0.102902 1.49112e-10 6.11576e-11 -9.00796e-10 10.2786 0.731801 0.0259123 1.49097e-10 6.11595e-11 -9.00788e-10 2.22167 -0.733487 -0.20892 7.53663e-14 -3.11102e-14 -1.10537e-13 -16.2737 -25.7957 9.71049 14.8796 -7.68655 -27.3411 0.00244929 1.41322 -0.198655 2.79847e-11 1.93086e-10 -7.76056e-10 4.73423e-11 3.3565e-10 -1.34328e-09 2.7978e-11 1.93086e-10 -7.76051e-10 -7.73091 5.47488 -0.417314 2.79851e-11 1.93088e-10 -7.76058e-10 -2.90554 0.965183 -0.102902 2.79785e-11 1.93086e-10 -7.76057e-10 -10.2786 0.731801 -0.0259123 2.79909e-11 1.93092e-10 -7.76062e-10 -2.22167 -0.733487 0.20892 -2.03217e-16 0.0 -3.88251e-19 -6.08056 -3.12056 -3.65098 -0.525092 45.8861 0.622561 1.84115 24.2583 -6.51695 2.03217e-16 0.0 3.88251e-19 5.04119 -21.3558 0.52317 0.181236 30.295 -0.150536 1.31714 -0.961741 11.742
9.36978 84.5516 0.33836 -4.009 3.9455 1.1938 -2.22508 9.34058 0.226379 2.53112 -2.56506 -0.0740337 4.04088 -5.1714 0.78161 -4.93385 16.0294 0.806172 -0.0 0.0 0.0 -0.0 0.0 0.0 5.89699e-14 3.75306e-14 -4.42517e-14 9.89228 -28.3929 -17.135 -13.0029 -6.17731 23.5685 -0.00135934 -1.05075 -0.14769 3.99355e-10 4.39184e-10 -9.36988e-10 6.89943e-10 7.59145e-10 -1.62081e-09 3.99357e-10 4.39185e-10 -9.36994e-10 7.73091 5.47488 0.417314 3.99355e-10 4.39184e-10 -9.36984e-10 2.90554 0.965183 0.102902 3.99364e-10 4.39185e-10 -9.36985e-10 10.2786 0.731801 0.0259123 3.99347e-10 4.39187e-10 -9.36978e-10 2.22167 -0.733487 -0.20892 5.87836e-14 3.75334e-14 -4.44385e-14 -16.4243 -25.888 9.59863 14.8397 -7.65231 -27.2592 0.00263576 1.46551 -0.206009 8.18603e-10 7.23225e-10 -4.60705e-10 1.41499e-09 1.25364e-09 -8.01062e-10 8.18597e-10 7.23224e-10 -4.60697e-10 -7.73091 5.47488 -0.417314 8.18603e-10 7.23226e-10 -4.60706e-10 -2.90554 0.965183 -0.102902 8.18595e-10 7.23223e-10 -4.60704e-10 -10.2786 0.731801 -0.0259123 8.18611e-10 7.2323e-10 -4.60707e-10 -2.22167 -0.733487 0.20892 -2.03217e-16 0.0 -3.88251e-19 -6.30956 -3.99846 -3.72881 -0.563441 47.0989 0.64557 2.0425 25.8725 -6.59393 2.03217e-16 0.0 3.88251e-19 4.86136 -21.0133 0.425519 0.177339 30.1685 -0.142893 1.35047 -1.12494 11.9247
